<?xml version="1.0" standalone="no"?>
<!DOCTYPE svg PUBLIC "-//W3C//DTD SVG 20010904//EN"
 "http://www.w3.org/TR/2001/REC-SVG-20010904/DTD/svg10.dtd">
<svg version="1.0" xmlns="http://www.w3.org/2000/svg"
 width="300.000000pt" height="300.000000pt" viewBox="0 0 300.000000 300.000000"
 preserveAspectRatio="xMidYMid meet">
<metadata>
Created by potrace 1.14, written by Peter Selinger 2001-2017
</metadata>
<g transform="translate(0.000000,300.000000) scale(0.100000,-0.100000)"
fill="#000000" stroke="none">
<path d="M950 2876 c0 -2 8 -10 18 -17 15 -13 16 -12 3 4 -13 16 -21 21 -21
13z"/>
<path d="M990 2838 c0 -16 11 -23 33 -19 5 1 6 -3 2 -8 -3 -6 -13 -7 -22 -4
-15 6 -16 5 -3 -9 8 -9 17 -14 20 -13 3 2 7 -5 7 -16 1 -12 -7 -23 -19 -28
-25 -9 -7 -19 29 -16 12 1 20 -2 17 -7 -3 -4 2 -8 11 -8 9 0 13 5 9 11 -4 7
-1 10 7 7 8 -3 13 -10 12 -16 -2 -7 4 -9 14 -5 12 5 14 3 8 -8 -6 -11 -5 -12
5 -2 12 11 11 15 -4 26 -17 13 -17 14 -1 30 9 9 13 17 8 17 -4 0 -2 4 5 9 11
7 10 9 -3 14 -9 4 -13 3 -10 -2 3 -5 2 -12 -3 -15 -5 -3 -9 2 -9 11 0 20 33
54 43 45 4 -4 4 -1 0 6 -6 11 -12 10 -27 -4 -18 -17 -20 -16 -34 2 -14 18 -14
17 -5 -8 5 -16 8 -28 5 -28 -2 0 -12 12 -20 28 -14 23 -16 24 -12 5 3 -13 0
-26 -5 -30 -7 -3 -8 -1 -4 5 4 7 2 12 -4 12 -6 0 -8 5 -4 13 6 9 4 9 -8 -1
-14 -11 -18 -10 -27 5 -10 17 -10 17 -11 1z"/>
<path d="M993 2769 c-1 -10 5 -19 13 -19 17 0 18 14 1 28 -10 8 -13 6 -14 -9z"/>
<path d="M1116 2742 c-3 -5 1 -9 9 -9 8 0 12 4 9 9 -3 4 -7 8 -9 8 -2 0 -6 -4
-9 -8z"/>
<path d="M993 2705 c0 -8 4 -12 9 -9 4 3 8 9 8 15 0 5 -4 9 -8 9 -5 0 -9 -7
-9 -15z"/>
<path d="M1337 2704 c-2 -2 -21 -6 -43 -9 -21 -3 -46 -8 -54 -11 -8 -3 -26 -8
-38 -10 -13 -3 -43 -11 -65 -20 -23 -8 -46 -16 -52 -17 -5 -1 -12 -4 -15 -7
-3 -3 -25 -14 -50 -25 -80 -36 -192 -115 -274 -196 -44 -43 -84 -79 -89 -79
-4 0 -6 -4 -3 -9 3 -5 -1 -12 -10 -15 -8 -3 -12 -10 -9 -16 11 -18 -11 -11
-29 9 -12 13 -14 21 -6 26 6 4 9 14 5 22 -4 13 -3 14 9 4 12 -10 14 -9 9 7 -2
10 3 26 12 36 9 9 12 16 6 16 -5 0 -14 -6 -18 -12 -4 -7 -17 -14 -28 -15 -58
-6 -90 -25 -82 -47 4 -11 12 -14 19 -10 10 6 11 5 1 -8 -7 -8 -11 -18 -8 -21
3 -4 2 -4 -2 -1 -5 3 -8 9 -8 12 0 14 -17 32 -28 32 -8 0 -7 -4 2 -9 18 -11
24 -48 11 -56 -6 -3 -10 -12 -10 -18 0 -8 4 -7 9 2 6 9 24 14 45 13 23 -1 34
3 32 11 -1 7 -1 9 1 4 3 -4 10 -4 15 -1 7 4 8 2 4 -4 -4 -7 -1 -12 10 -12 14
0 12 -5 -8 -32 -23 -30 -61 -95 -63 -108 0 -3 -8 -19 -17 -36 -53 -99 -90
-259 -93 -409 -4 -133 11 -236 51 -353 23 -69 89 -211 103 -222 3 -3 20 -25
36 -50 16 -25 67 -83 112 -130 80 -82 83 -87 83 -132 l0 -48 -49 0 c-28 0 -53
-5 -57 -12 -12 -19 -7 -277 5 -292 21 -25 179 -56 389 -75 85 -8 693 -6 742 2
14 3 61 8 105 12 131 13 174 21 232 46 l43 18 1 58 c1 71 1 190 0 220 -1 19
-7 22 -48 25 l-48 3 -2 40 c-1 36 5 45 72 115 39 41 81 86 91 99 10 13 27 32
37 43 9 10 14 18 10 18 -3 0 3 10 15 23 12 13 19 27 15 30 -3 4 -2 7 4 7 10 0
38 49 35 63 -1 4 2 7 8 7 5 0 10 5 10 11 0 5 10 31 21 57 l21 46 19 -24 c10
-14 27 -34 36 -44 13 -14 14 -17 3 -12 -9 4 -7 1 3 -7 16 -13 16 -15 2 -21 -9
-3 -14 -2 -11 2 2 4 -5 9 -17 9 -20 2 -20 1 -4 -8 9 -6 15 -15 11 -20 -4 -6
-12 -5 -22 3 -14 11 -14 9 1 -8 22 -27 22 -40 0 -23 -17 13 -17 13 0 -7 9 -11
15 -24 12 -27 -3 -4 -2 -5 2 -2 7 5 13 27 15 53 1 6 5 12 10 12 10 0 10 -11
-1 -30 -12 -18 -1 -36 11 -19 8 11 9 11 5 -1 -2 -8 -10 -14 -17 -12 -7 2 -10
-3 -7 -12 3 -8 -2 -20 -10 -28 -15 -11 -16 -11 -9 7 5 15 4 17 -5 8 -12 -12
-3 -37 11 -28 4 3 11 -2 14 -11 4 -11 2 -15 -8 -11 -10 4 -13 1 -10 -8 3 -7
-5 -21 -20 -30 -13 -9 -23 -22 -20 -30 4 -9 18 0 44 27 25 26 40 36 45 28 4
-6 13 -9 21 -6 7 3 20 -5 29 -17 8 -12 15 -17 15 -11 0 5 -5 15 -12 22 -9 9
-9 12 -1 12 17 0 43 -41 36 -54 -4 -6 2 -4 13 4 29 22 30 24 12 17 -9 -3 -19
0 -22 9 -6 15 18 15 42 0 11 -7 11 -4 1 13 -8 12 -16 16 -20 10 -4 -6 -9 -7
-12 -3 -3 5 7 18 22 29 24 17 25 17 11 1 -14 -18 -13 -18 8 -12 14 5 22 3 22
-4 0 -6 -4 -8 -10 -5 -5 3 -10 1 -10 -5 0 -7 7 -10 15 -6 20 7 46 -4 38 -17
-3 -5 -1 -7 5 -3 6 3 20 -6 32 -21 12 -16 25 -28 28 -28 4 0 5 -4 4 -10 -2 -5
0 -7 4 -3 4 4 13 0 21 -10 13 -15 13 -15 3 5 -5 12 -19 28 -30 36 -11 8 -17
17 -12 21 4 4 2 6 -4 4 -9 -3 -42 31 -82 83 -10 13 -8 16 11 15 12 -1 29 -6
37 -11 13 -8 13 -7 0 10 -14 17 -13 18 3 12 9 -3 17 -2 17 3 0 6 -7 10 -16 10
-10 0 -14 7 -12 22 2 14 -2 22 -9 20 -7 -1 -13 3 -13 9 0 5 -4 7 -10 4 -5 -3
-10 -1 -10 5 0 6 11 8 27 6 19 -4 23 -2 15 6 -8 8 -7 14 5 23 13 10 13 14 3
20 -9 6 -11 4 -5 -5 6 -10 4 -12 -8 -7 -12 4 -15 1 -12 -14 3 -16 1 -18 -9
-10 -7 6 -15 10 -18 8 -2 -1 13 15 33 35 29 29 34 39 24 48 -9 8 -14 5 -18 -9
-3 -14 -11 -19 -26 -16 -12 2 -19 0 -16 -5 3 -6 -3 -20 -15 -32 -19 -21 -21
-21 -14 -3 7 18 6 19 -12 5 -17 -13 -18 -13 -8 0 7 8 12 27 12 42 l0 27 -19
-22 c-10 -12 -18 -17 -19 -11 0 7 -7 15 -16 18 -8 3 -13 2 -10 -3 3 -5 -2 -12
-11 -15 -9 -4 -20 -1 -24 5 -4 6 -12 8 -18 5 -6 -4 -9 -12 -5 -17 3 -5 9 -7
14 -4 5 3 11 1 15 -5 4 -6 12 -4 22 5 11 11 19 13 27 5 7 -5 16 -7 19 -3 4 3
7 1 7 -5 0 -7 -4 -12 -10 -12 -5 0 -8 -6 -6 -12 1 -7 1 -10 -1 -5 -3 4 -9 5
-14 1 -5 -3 -9 0 -9 5 0 6 5 11 11 11 5 0 7 5 4 11 -5 7 -14 4 -26 -7 -20 -18
-50 -28 -46 -16 1 4 -2 8 -6 9 -5 1 -16 11 -25 22 -57 67 -55 60 -42 110 7 25
14 55 16 66 2 11 7 31 10 45 10 41 12 293 2 325 -5 17 -11 45 -14 64 -8 57
-45 163 -87 246 -22 44 -43 82 -47 85 -4 3 -13 15 -19 28 -7 13 -20 33 -29 44
-33 42 -186 197 -190 194 -2 -2 -20 11 -40 29 -20 19 -40 32 -44 29 -4 -3 -8
0 -8 5 0 12 -219 121 -242 121 -9 0 -34 7 -57 15 -23 8 -61 17 -84 21 -44 7
-304 13 -310 8z m1229 -1506 c4 -7 3 -8 -4 -4 -7 4 -12 2 -12 -5 0 -7 -3 -10
-6 -6 -6 5 3 27 11 27 2 0 7 -5 11 -12z m178 -79 c-2 -4 -12 -5 -21 -2 -11 4
-13 8 -5 11 7 2 12 8 12 13 0 4 -8 6 -17 3 -15 -5 -16 -4 -3 5 11 8 18 7 27
-6 7 -9 10 -20 7 -24z m-181 6 c-7 -21 -12 -19 -10 4 0 11 5 18 9 15 4 -3 5
-11 1 -19z m-24 -41 c-6 -7 -16 -11 -23 -7 -7 5 -5 9 7 11 9 2 14 8 11 14 -4
7 -2 8 5 4 9 -6 9 -11 0 -22z m84 1 c-7 -21 -12 -19 -10 4 0 11 5 18 9 15 4
-3 5 -11 1 -19z m-45 -32 c6 -2 12 2 12 7 0 6 8 5 20 -2 11 -7 20 -17 20 -22
0 -4 -6 -4 -13 2 -7 6 -25 9 -40 6 -21 -3 -27 0 -27 13 0 10 4 14 8 8 4 -5 13
-11 20 -12z"/>
<path d="M313 2550 c-26 -11 -21 -40 6 -40 11 0 17 8 17 25 0 14 0 25 0 24 -1
0 -11 -4 -23 -9z"/>
<path d="M491 2397 c-1 -21 22 -32 41 -21 7 5 16 9 20 9 3 0 9 3 12 8 3 4 3 5
-1 2 -3 -3 -12 0 -20 7 -11 9 -13 8 -11 -2 4 -19 -25 -19 -34 0 -5 12 -7 12
-7 -3z"/>
<path d="M605 2320 c-3 -5 1 -10 9 -10 9 0 16 5 16 10 0 6 -4 10 -9 10 -6 0
-13 -4 -16 -10z"/>
<path d="M2796 1337 c-15 -15 -25 -31 -21 -35 3 -4 11 1 16 11 6 9 15 15 20
11 5 -3 8 -1 7 5 -2 5 5 16 16 24 12 9 14 14 5 13 -8 0 -27 -13 -43 -29z"/>
<path d="M2773 1205 c-3 -9 -3 -18 -1 -21 3 -3 8 4 11 16 6 23 -1 27 -10 5z"/>
<path d="M2727 1084 c6 -15 23 -19 23 -5 0 5 -7 11 -14 14 -10 4 -13 1 -9 -9z"/>
<path d="M2428 961 c-8 -12 -18 -18 -23 -13 -5 4 -5 1 -1 -6 6 -11 13 -9 28 8
11 12 18 24 15 26 -3 3 -11 -4 -19 -15z"/>
<path d="M2379 913 c-13 -16 -12 -17 4 -4 16 13 21 21 13 21 -2 0 -10 -8 -17
-17z"/>
</g>
</svg>
